# xmcd
#
# Track frame offsets:
# 150
# 15637
# 32625
# 47810
# 61612
# 75175
# 91137
# 104937
# 120975
# 131612
# 145612
# 158405
# 173920
# 190225
#
# Disc length: 2790 seconds
#
#
# Revision: 0
# Processed by: cddbd v1.4PL0 Copyright (c) Steve Scherf et al.
# Submitted via: FreeRIP 2.51 
#
DISCID=a40ae40e
DTITLE=Annie Schilder - High Noon
DYEAR=0095
DGENRE=Country
TTITLE0=High Noon (Do Not Forsake Me)
TTITLE1=Angel In The Morning
TTITLE2=Apple - Jack
TTITLE3=Take Me Home, Country Road
TTITLE4=The End Of The World
TTITLE5=Song Sung Bleu
TTITLE6=Sweet Suzanne
TTITLE7=Take That Look Off Your Face
TTITLE8=You`re No Good
TTITLE9=All I Ever Need Is You
TTITLE10=Baby, Ain`t That Fine
TTITLE11=Blanket On The Ground
TTITLE12=You Needed Me
TTITLE13=Mon Amour
EXTD=
EXTT0=
EXTT1=
EXTT2=
EXTT3=
EXTT4=
EXTT5=
EXTT6=
EXTT7=
EXTT8=
EXTT9=
EXTT10=
EXTT11=
EXTT12=
EXTT13=
PLAYORDER=
